<svg width="1113" height="1285" viewBox="0 0 1113 1285" fill="none" xmlns="http://www.w3.org/2000/svg">
<mask id="path-1-outside-1_21_148" maskUnits="userSpaceOnUse" x="86.3369" y="731.719" width="568.19" height="316.97" fill="black">
<rect fill="white" x="86.3369" y="731.719" width="568.19" height="316.97"/>
<path d="M119.693 806C131.121 771.97 167.973 753.647 202.004 765.075L651.343 915.972L609.958 1039.21L160.618 888.311C126.588 876.883 108.265 840.031 119.693 806V806Z"/>
</mask>
<path d="M119.693 806C131.121 771.97 167.973 753.647 202.004 765.075L651.343 915.972L609.958 1039.21L160.618 888.311C126.588 876.883 108.265 840.031 119.693 806V806Z" fill="white"/>
<path d="M110.213 802.817C123.4 763.551 165.921 742.409 205.187 755.595L654.527 906.493L648.16 925.452L198.82 774.555C170.025 764.884 138.843 780.389 129.173 809.184L110.213 802.817ZM606.774 1048.69L157.435 897.791C118.169 884.605 97.0266 842.083 110.213 802.817L129.173 809.184C119.502 837.979 135.007 869.162 163.802 878.832L613.141 1029.73L606.774 1048.69ZM157.435 897.791C118.169 884.605 97.0266 842.083 110.213 802.817C123.4 763.551 165.921 742.409 205.187 755.595L198.82 774.555C170.025 764.884 138.843 780.389 129.173 809.184C119.502 837.979 135.007 869.162 163.802 878.832L157.435 897.791ZM651.343 915.972L609.958 1039.21L651.343 915.972Z" fill="#135E35" mask="url(#path-1-outside-1_21_148)"/>
<rect x="592.654" y="1033.79" width="19" height="8" transform="rotate(21.8875 592.654 1033.79)" fill="#135E35"/>
<rect x="594.654" y="1035.79" width="19" height="8" transform="rotate(21.8875 594.654 1035.79)" fill="#135E35"/>
<rect width="19" height="8" transform="matrix(-0.927917 0.372786 0.372786 0.927917 624.302 1035.79)" fill="#135E35"/>
<path d="M1092.09 740.002L1071.41 747.384L574.672 914.198L616.25 1038.01L1068.17 886.765V886.796L1074.08 884.789L1082.09 882.107L1082.09 882.067L1092.09 878.671V889.306L1085.27 891.591L619.425 1047.49L609.951 1050.66L562.009 907.902L1092.09 729.888V740.002Z" fill="#135E35"/>
<rect x="512.758" y="921.794" width="56.0473" height="81" transform="rotate(18.0413 512.758 921.794)" fill="white"/>
<path d="M1071.17 747.795L567.672 916.386L609.058 1039.62L1078.17 882.296L1069.67 827.796L1067.67 818.296L1067.67 805.296L1067.67 790.296L1067.67 776.296L1069.67 761.796L1071.17 747.795Z" fill="#D9D9D9"/>
<rect x="518.758" y="871.794" width="91.463" height="81" transform="rotate(18.0413 518.758 871.794)" fill="white"/>
<path d="M167.172 742.296L611.172 640.296L1092.17 729.796L611.172 891.796L190.673 752.296L187.173 751.796L184.173 751.796L179.173 751.796L171.673 752.296L158.672 755.296L139.673 764.296L167.172 742.296Z" fill="#34FF8F"/>
<path d="M609.815 902.945L608.068 917.028L605.794 931.62L605.607 945.684L605.406 960.751L605.232 973.81L605.406 1002L609.815 1039.5L567 1025.52V895.164L576.5 891L609.815 902.945Z" fill="#FFFDFD"/>
<mask id="path-12-outside-2_21_148" maskUnits="userSpaceOnUse" x="85.6638" y="576.719" width="568.19" height="316.97" fill="black">
<rect fill="white" x="85.6638" y="576.719" width="568.19" height="316.97"/>
<path d="M119.02 651C130.448 616.97 167.3 598.647 201.331 610.075L650.67 760.972L609.285 884.209L159.945 733.311C125.914 721.883 107.591 685.031 119.02 651V651Z"/>
</mask>
<path d="M119.02 651C130.448 616.97 167.3 598.647 201.331 610.075L650.67 760.972L609.285 884.209L159.945 733.311C125.914 721.883 107.591 685.031 119.02 651V651Z" fill="#135E35"/>
<path d="M109.54 647.817C122.726 608.551 165.248 587.409 204.514 600.595L653.854 751.493L647.487 770.452L198.147 619.555C169.352 609.884 138.17 625.389 128.499 654.184L109.54 647.817ZM606.101 893.689L156.762 742.791C117.495 729.605 96.3535 687.083 109.54 647.817L128.499 654.184C118.829 682.979 134.333 714.162 163.129 723.832L612.468 874.729L606.101 893.689ZM156.762 742.791C117.495 729.605 96.3535 687.083 109.54 647.817C122.726 608.551 165.248 587.409 204.514 600.595L198.147 619.555C169.352 609.884 138.17 625.389 128.499 654.184C118.829 682.979 134.333 714.162 163.129 723.832L156.762 742.791ZM650.67 760.972L609.285 884.209L650.67 760.972Z" fill="#135E35" mask="url(#path-12-outside-2_21_148)"/>
<rect x="591.98" y="878.794" width="19" height="8" transform="rotate(21.8875 591.98 878.794)" fill="#135E35"/>
<rect x="593.98" y="880.794" width="19" height="8" transform="rotate(21.8875 593.98 880.794)" fill="#135E35"/>
<rect width="19" height="8" transform="matrix(-0.927917 0.372786 0.372786 0.927917 623.628 880.794)" fill="#135E35"/>
<path d="M1091.42 585.002L1070.73 592.384L573.998 759.198L615.576 883.01L1067.5 731.765V731.796L1073.4 729.789L1081.42 727.107L1081.42 727.067L1091.42 723.671V734.306L1084.59 736.591L618.751 892.494L609.277 895.664L561.335 752.902L1091.42 574.888V585.002Z" fill="#135E35"/>
<path d="M1070.5 592.795L523.073 776.137L547 829.5L553.5 850.5L582.5 877L615.5 881.5L623 880L627.5 879L642.5 874L1074.51 728.301L1066.77 673.543L1064.87 664.011L1065.21 650.896L1065.61 635.764L1065.97 621.64L1068.51 606.959L1070.5 592.795Z" fill="#D9D9D9"/>
<path d="M518.085 716.794L597.069 742.521L589.5 743.797L583 746.297L577 749.297L570.5 754.297L564 759.797L558.5 765.297L554 771.297L550 776.797L546 785.297L542.5 794.797L540.5 804.797L540 808.797L539.5 814.797L540 822.797L540.5 825.797L541.5 831.797L543.5 839.797L548 849.797L554 859.797L561.5 868.297L510.5 851.297L471.5 837.797L492.999 793.812L518.085 716.794Z" fill="#135E35"/>
<path d="M166.499 587.296L610.499 485.296L1091.5 574.796L610.499 736.796L190 597.296L186.5 596.796L183.5 596.796L178.5 596.796L171 597.296L157.999 600.296L139 609.296L166.499 587.296Z" fill="#135E35"/>
<path d="M1044.54 605.295L594.361 753.669C560.267 764.906 541.737 801.655 552.974 835.749C564.212 869.843 600.96 888.373 635.054 877.136L1085.23 728.761L1088.36 738.259L638.185 886.633C598.845 899.599 556.443 878.219 543.477 838.879C530.511 799.54 551.891 757.137 591.231 744.171L1041.41 595.797L1044.54 605.295Z" fill="#135E35"/>
<path d="M622 778.797H722L727 845L622 878.797V778.797Z" fill="#D9D9D9"/>
<mask id="path-23-outside-3_21_148" maskUnits="userSpaceOnUse" x="85.3369" y="419.719" width="568.19" height="316.97" fill="black">
<rect fill="white" x="85.3369" y="419.719" width="568.19" height="316.97"/>
<path d="M118.693 494C130.121 459.97 166.973 441.647 201.004 453.075L650.343 603.972L608.958 727.209L159.618 576.311C125.588 564.883 107.265 528.031 118.693 494V494Z"/>
</mask>
<path d="M118.693 494C130.121 459.97 166.973 441.647 201.004 453.075L650.343 603.972L608.958 727.209L159.618 576.311C125.588 564.883 107.265 528.031 118.693 494V494Z" fill="white"/>
<path d="M109.213 490.817C122.4 451.551 164.921 430.409 204.187 443.595L653.527 594.493L647.16 613.452L197.82 462.555C169.025 452.884 137.843 468.389 128.173 497.184L109.213 490.817ZM605.774 736.689L156.435 585.791C117.169 572.605 96.0266 530.083 109.213 490.817L128.173 497.184C118.502 525.979 134.007 557.162 162.802 566.832L612.141 717.729L605.774 736.689ZM156.435 585.791C117.169 572.605 96.0266 530.083 109.213 490.817C122.4 451.551 164.921 430.409 204.187 443.595L197.82 462.555C169.025 452.884 137.843 468.389 128.173 497.184C118.502 525.979 134.007 557.162 162.802 566.832L156.435 585.791ZM650.343 603.972L608.958 727.209L650.343 603.972Z" fill="#135E35" mask="url(#path-23-outside-3_21_148)"/>
<rect x="591.654" y="721.794" width="19" height="8" transform="rotate(21.8875 591.654 721.794)" fill="#135E35"/>
<rect x="593.654" y="723.794" width="19" height="8" transform="rotate(21.8875 593.654 723.794)" fill="#135E35"/>
<rect width="19" height="8" transform="matrix(-0.927917 0.372786 0.372786 0.927917 623.302 723.794)" fill="#135E35"/>
<path d="M1091.09 428.002L1070.41 435.384L573.672 602.198L615.25 726.01L1067.17 574.765V574.796L1073.08 572.789L1081.09 570.107L1081.09 570.067L1091.09 566.671V577.306L1084.27 579.591L618.425 735.494L608.951 738.664L561.009 595.902L1091.09 417.888V428.002Z" fill="#135E35"/>
<rect x="511.758" y="609.794" width="56.0473" height="81" transform="rotate(18.0413 511.758 609.794)" fill="white"/>
<path d="M1070.17 435.795L566.672 604.386L608.058 727.622L1077.17 570.296L1068.67 515.796L1066.67 506.296L1066.67 493.296L1066.67 478.296L1066.67 464.296L1068.67 449.796L1070.17 435.795Z" fill="#D9D9D9"/>
<rect x="517.758" y="559.794" width="91.463" height="81" transform="rotate(18.0413 517.758 559.794)" fill="white"/>
<path d="M166.172 430.296L610.172 328.296L1091.17 417.796L610.172 579.796L189.673 440.296L186.173 439.796L183.173 439.796L178.173 439.796L170.673 440.296L157.672 443.296L138.673 452.296L166.172 430.296Z" fill="url(#paint0_linear_21_148)"/>
<path d="M608.815 590.945L607.068 605.028L604.794 619.62L604.607 633.684L604.406 648.751L604.232 661.81L604.406 690L608.815 727.5L566 713.516V583.164L575.5 579L608.815 590.945Z" fill="#FFFDFD"/>
<path d="M716.647 284.721C714.831 311.678 681.693 348.131 646.762 357.71C607.932 360.948 610.851 317.676 631.062 282.888C665.191 244.612 666.294 234.208 725.182 213.88C732.925 206.595 719.788 258.657 716.647 284.721Z" fill="url(#paint1_linear_21_148)"/>
<path d="M548.056 327.252C549.172 341.998 567.84 362.051 587.411 367.419C609.139 369.333 607.347 345.663 595.914 326.568C576.685 305.514 576.029 299.821 543.02 288.488C538.663 284.476 546.203 312.99 548.056 327.252Z" fill="url(#paint2_linear_21_148)"/>
<ellipse cx="612.5" cy="456" rx="98.5" ry="24" fill="#2CCA73"/>
<path d="M573 319.5L609 380L662.5 286L632 364.5L624.5 380L622 389.5V456H599L600 390.5L597 380L591.5 367.5L582.5 344.5L573 319.5Z" fill="#B29292"/>
<path d="M134 636L539.958 768.941L522 789.5L516.5 809.5L522 832L536.5 852L563.5 873.5L134 715.5L128 699L125.5 688L123.5 678L122 666.5L123.5 656L125.5 644L134 636Z" fill="#1F9956"/>
<defs>
<linearGradient id="paint0_linear_21_148" x1="545" y1="482.5" x2="752.943" y2="642.654" gradientUnits="userSpaceOnUse">
<stop stop-color="#34FF8F"/>
<stop offset="1" stop-color="#1F9956"/>
</linearGradient>
<linearGradient id="paint1_linear_21_148" x1="665.031" y1="290.676" x2="635" y2="284.5" gradientUnits="userSpaceOnUse">
<stop stop-color="#34FF8F"/>
<stop offset="1" stop-color="#135E35"/>
</linearGradient>
<linearGradient id="paint2_linear_21_148" x1="579.537" y1="298.295" x2="562.457" y2="360.575" gradientUnits="userSpaceOnUse">
<stop stop-color="#34FF8F"/>
<stop offset="1" stop-color="#1F9956"/>
</linearGradient>
</defs>
</svg>
