<svg width="1116" height="945" viewBox="0 0 1116 945" fill="none" xmlns="http://www.w3.org/2000/svg">
<path d="M475.388 322.983H641.272C818.004 322.983 961.272 466.252 961.272 642.983V845C961.272 883.66 929.932 915 891.272 915H225.388C186.728 915 155.388 883.66 155.388 845V642.983C155.388 466.252 298.657 322.983 475.388 322.983Z" fill="white" stroke="#2ECC71" stroke-width="60"/>
<path d="M552.135 420.092H563.858C712.975 420.092 833.858 540.975 833.858 690.092V747.891C833.858 786.551 802.518 817.891 763.858 817.891H352.135C313.475 817.891 282.135 786.551 282.135 747.891V690.092C282.135 540.975 403.018 420.092 552.135 420.092Z" fill="white" stroke="#2ECC71" stroke-width="60"/>
<mask id="path-3-outside-1_80_20" maskUnits="userSpaceOnUse" x="0" y="524.828" width="146" height="373" fill="black">
<rect fill="white" y="524.828" width="146" height="373"/>
<path d="M60 670.216C60 623.058 98.2294 584.828 145.388 584.828V584.828V836.985V836.985C98.2294 836.985 60 798.756 60 751.597V670.216Z"/>
</mask>
<path d="M60 670.216C60 623.058 98.2294 584.828 145.388 584.828V584.828V836.985V836.985C98.2294 836.985 60 798.756 60 751.597V670.216Z" fill="white"/>
<path d="M0 670.216C0 589.92 65.0923 524.828 145.388 524.828H145.388V644.828C131.366 644.828 120 656.195 120 670.216L0 670.216ZM145.388 896.985H145.388C65.0923 896.985 0 831.893 0 751.597L120 751.597C120 765.619 131.366 776.985 145.388 776.985V896.985ZM145.388 896.985C65.0923 896.985 0 831.893 0 751.597V670.216C0 589.92 65.0923 524.828 145.388 524.828L145.388 644.828C131.366 644.828 120 656.195 120 670.216V751.597C120 765.619 131.366 776.985 145.388 776.985L145.388 896.985ZM145.388 584.828V836.985V584.828Z" fill="#2CCA73" mask="url(#path-3-outside-1_80_20)"/>
<mask id="path-5-outside-2_80_20" maskUnits="userSpaceOnUse" x="969.388" y="524.828" width="146" height="373" fill="black">
<rect fill="white" x="969.388" y="524.828" width="146" height="373"/>
<path d="M1055.39 670.216C1055.39 623.058 1017.16 584.828 970 584.828V584.828V836.985V836.985C1017.16 836.985 1055.39 798.756 1055.39 751.597V670.216Z"/>
</mask>
<path d="M1055.39 670.216C1055.39 623.058 1017.16 584.828 970 584.828V584.828V836.985V836.985C1017.16 836.985 1055.39 798.756 1055.39 751.597V670.216Z" fill="white"/>
<path d="M1115.39 670.216C1115.39 589.92 1050.3 524.828 970 524.828H970V644.828C984.021 644.828 995.388 656.195 995.388 670.216L1115.39 670.216ZM970 896.985H970C1050.3 896.985 1115.39 831.893 1115.39 751.597L995.388 751.597C995.388 765.619 984.021 776.985 970 776.985V896.985ZM970 896.985C1050.3 896.985 1115.39 831.893 1115.39 751.597V670.216C1115.39 589.92 1050.3 524.828 970 524.828L970 644.828C984.021 644.828 995.388 656.195 995.388 670.216V751.597C995.388 765.619 984.021 776.985 970 776.985L970 896.985ZM970 584.828V836.985V584.828Z" fill="#2CCA73" mask="url(#path-5-outside-2_80_20)"/>
<ellipse cx="438.587" cy="654.081" rx="40.359" ry="47.7384" fill="#2CCA73"/>
<ellipse cx="675.404" cy="654.081" rx="40.359" ry="47.7384" fill="#2CCA73"/>
<ellipse cx="570.827" cy="66.5" rx="61.5" ry="66.5" fill="#2CCA73"/>
<line y1="-39" x2="190.958" y2="-39" transform="matrix(-0.00698677 0.999976 -0.999945 -0.0104548 530.979 102.029)" stroke="#2CCA73" stroke-width="78"/>
</svg>
